<?xml version="1.0" encoding="UTF-8" standalone="no"?>
<!-- Created with Inkscape (http://www.inkscape.org/) -->
<svg
   xmlns:svg="http://www.w3.org/2000/svg"
   xmlns="http://www.w3.org/2000/svg"
   version="1.0"
   width="256"
   height="256.62762"
   id="svg1923">
  <defs
     id="defs1926" />
  <g
     transform="matrix(1.749829,0,0,1.749829,-3.774105,-424.78749)"
     id="g2715">
    <g
       transform="matrix(0.9912385,0,0,0.9912385,1.323229e-2,3.4175574)"
       id="g3521">
      <path
         d="M 136.47049,274.08383 A 73.185555,73.185555 0 1 1 136.45721,274.06571"
         transform="matrix(0.992802,0,0,0.992802,-1.564015,1.223382)"
         id="path1932"
         style="fill:#FFF;fill-opacity:0;stroke:#000000;stroke-width:2.3228631;stroke-linecap:round;stroke-linejoin:round;stroke-miterlimit:4;stroke-dasharray:none;stroke-dashoffset:0;stroke-opacity:1" />
      <path
         d="M 22.98097,367.35667 L 29.698485,334.82976 L 36.592776,316.44498 L 48.083261,287.98393 L 56.745319,270.48304 L 75.483648,243.25943 L 94.752308,271.5437 L 114.02097,315.5611 L 120.38493,334.82976 L 126.57211,367.35667 L 94.221978,360.63915 L 74.599765,354.80552 L 48.260037,343.66859 L 29.698485,334.4762 L 3.1819805,315.73787 L 29.521708,297.52987 L 47.906484,287.98393 L 76.190755,276.67022 L 94.575531,271.19015 L 125.68823,264.11908 L 120.56171,297.17632 L 114.02097,315.5611 L 102.70726,343.31504 L 94.221978,360.99271 L 75.306872,387.86276 L 55.861435,360.81593 L 47.729707,343.49181 L 36.592776,316.44498 L 30.228815,297.3531 L 24.57196,264.47263 L 56.745319,270.48304 L 77.074638,276.67022 L 102.35371,287.80716 L 120.73848,296.46921 L 147.25499,315.20754 L 120.73848,334.29943 L 102.53048,343.13826 L 75.130095,354.45197 L 56.214989,360.63915 L 22.98097,367.35667 z"
         id="path1934"
         style="fill:none;fill-rule:evenodd;stroke:#000000;stroke-width:2.30614281;stroke-linecap:round;stroke-linejoin:round;stroke-miterlimit:4;stroke-dasharray:none;stroke-opacity:1" />
      <path
         d="M 56.745319,270.65982 L 47.729707,249.09306"
         id="path1936"
         style="fill:none;fill-rule:evenodd;stroke:#000000;stroke-width:2.30614281;stroke-linecap:round;stroke-linejoin:round;stroke-miterlimit:4;stroke-dasharray:none;stroke-opacity:1" />
      <path
         d="M 94.752308,271.19015 L 102.88404,248.91628"
         id="path1938"
         style="fill:none;fill-rule:evenodd;stroke:#000000;stroke-width:2.30614281;stroke-linecap:round;stroke-linejoin:round;stroke-miterlimit:4;stroke-dasharray:none;stroke-opacity:1" />
      <path
         d="M 121.09204,296.29244 L 142.48202,288.16071"
         id="path1940"
         style="fill:none;fill-rule:evenodd;stroke:#000000;stroke-width:2.30614281;stroke-linecap:round;stroke-linejoin:round;stroke-miterlimit:4;stroke-dasharray:none;stroke-opacity:1" />
      <path
         d="M 120.56171,334.4762 L 142.65879,343.49181"
         id="path1942"
         style="fill:none;fill-rule:evenodd;stroke:#000000;stroke-width:2.30614281;stroke-linecap:round;stroke-linejoin:round;stroke-miterlimit:4;stroke-dasharray:none;stroke-opacity:1" />
      <path
         d="M 94.575531,360.46238 L 103.41437,383.62012"
         id="path1945"
         style="fill:none;fill-rule:evenodd;stroke:#000000;stroke-width:2.30614281;stroke-linecap:round;stroke-linejoin:round;stroke-miterlimit:4;stroke-dasharray:none;stroke-opacity:1" />
      <path
         d="M 56.038212,360.63915 L 46.845824,383.26657"
         id="path1947"
         style="fill:none;fill-rule:evenodd;stroke:#000000;stroke-width:2.30614281;stroke-linecap:round;stroke-linejoin:round;stroke-miterlimit:4;stroke-dasharray:none;stroke-opacity:1" />
      <path
         d="M 30.052038,334.82976 L 8.1317279,344.02214"
         id="path1949"
         style="fill:none;fill-rule:evenodd;stroke:#000000;stroke-width:2.30614281;stroke-linecap:round;stroke-linejoin:round;stroke-miterlimit:4;stroke-dasharray:none;stroke-opacity:1" />
      <path
         d="M 30.405591,297.17632 L 8.4852813,287.98393"
         id="path1951"
         style="fill:none;fill-rule:evenodd;stroke:#000000;stroke-width:2.30614281;stroke-linecap:round;stroke-linejoin:round;stroke-miterlimit:4;stroke-dasharray:none;stroke-opacity:1" />
    </g>
  </g>
</svg>
